<svg
  version="1.1"
  viewBox="0 0 1200 1200"
  xmlns="http://www.w3.org/2000/svg"
>
  <path
    d="m180.77 438.16v323.67c0 141.92 115.46 257.39 257.39 257.39h323.67c141.92 0 257.39-115.46 257.39-257.39v-323.67c0-141.93-115.46-257.39-257.39-257.39h-323.67c-141.93 0-257.39 115.46-257.39 257.39zm83.434 11.469c0-102.24 83.184-185.43 185.43-185.43h300.73c102.24 0 185.42 83.184 185.42 185.43v300.73c0 102.24-83.18 185.42-185.42 185.42h-300.73c-102.24 0-185.43-83.18-185.43-185.42zm220.82 150.37c0 63.398 51.578 114.97 114.97 114.97 63.398 0 114.97-51.578 114.97-114.97 0-63.398-51.578-114.97-114.97-114.97-63.398 0-114.97 51.578-114.97 114.97zm-76 0c0-105.31 85.668-190.98 190.98-190.98s190.98 85.668 190.98 190.98-85.668 190.98-190.98 190.98-190.98-85.668-190.98-190.98zm406.04-267.15c27.02 0 48.918 21.902 48.918 48.918 0 27.02-21.898 48.918-48.918 48.918-27.016 0-48.918-21.902-48.918-48.918s21.902-48.918 48.918-48.918z"
    fillRule="evenodd"
    fill="currentColor"
  />
</svg>
