<svg viewBox="0 0 112.16 11.8" xmlns="http://www.w3.org/2000/svg"><path d="m112.16 8.8c-16.04-.04-32.71-1.02-48.95-.42-8.59.32-17.16 1.06-25.7 1.98-5.98.48-11.98 1.55-17.98 1.43-.82-.14-1.36-.92-1.22-1.74.08-.48.4-.89.84-1.1 3.24-.96 6.67-1.22 9.98-1.91 6.8-1.23 13.62-2.3 20.4-3.61-16.62 1.43-34.19 4.06-49.53 6.19 11.47-3.82 26.56-6.31 39.58-7.76 4.11-.49 8.23-.92 12.35-1.33 2.81-.15 5.67-.84 8.47-.38 1.01.29 1.9 1.62 1.13 2.55-1.11 1.17-2.81 1.49-4.3 1.91-3.48.77-6.97 1.44-10.48 2.07 2.56-.24 5.12-.45 7.69-.6 19.25-1.29 38.74-1.12 57.72 2.71z" fill="#e5b83e"/></svg>