<?xml version="1.0" encoding="utf-8"?>
<!-- Generator: Adobe Illustrator 28.3.0, SVG Export Plug-In . SVG Version: 6.00 Build 0)  -->
<svg version="1.1" id="Layer_1" xmlns="http://www.w3.org/2000/svg" xmlns:xlink="http://www.w3.org/1999/xlink" x="0px" y="0px"
	 viewBox="0 0 260 15.6" style="enable-background:new 0 0 260 15.6;" xml:space="preserve">
<style type="text/css">
	.st0{fill:#E5B83E;}
</style>
<path class="st0" d="M206.8,7.3l-0.1,0.3C206.8,7.4,206.9,7.3,206.8,7.3z M234.7,10h-0.1C234.4,10.4,234.5,10.3,234.7,10z M54.8,4.2
	l-0.6-0.4C54.4,4.2,54.6,4.3,54.8,4.2z M34.5,9.6l0.1,0.3C34.6,9.7,34.6,9.6,34.5,9.6z M22.4,10.8c-0.3-0.1-0.7-0.1-1-0.1
	C21.6,10.8,22.1,10.8,22.4,10.8z M17.5,5c-0.1,0.1-0.2,0.1-0.4,0.2C17.3,5.1,17.4,5,17.5,5z M52.7,9.8l0.5,0.9
	C53.1,10.4,52.9,10.1,52.7,9.8z M19.5,11.6c-0.2-0.2-0.4-0.2-0.6-0.3C18.9,11.5,19.2,11.6,19.5,11.6z M120.9,11.4
	c-0.1,0.1-0.2,0.2-0.2,0.3C121,11.6,121,11.5,120.9,11.4z M80.9,10.4L80.9,10.4c-0.1,0,0,0.1,0.1,0.1L80.9,10.4z M92.6,10.4
	l-0.2,0.2C92.6,10.5,92.6,10.5,92.6,10.4z M72.1,11.3c-0.1,0.1-0.3,0.2-0.4,0.3L72.1,11.3z"/>
<path class="st0" d="M260,6c-1-0.6-4.7-1.2-5.8,0.3c-0.2-0.1,0.1-0.3,0.2-0.4c-0.9,0.2-2.2,0.1-3.6,0s-2.9-0.2-4.2,0
	c-1,1.5-3.9-0.6-4.8,1.4l0.5-0.4c0.9,0.5-1.2,1.4-1.5,1.9c-0.8-1.2-0.1-1-1-2l1.1,0.4l-0.3-1c-3.1,2.8-6.2-0.9-8.2,1.1
	c0.1-0.1,0.1-0.3,0.2-0.4c-1.4-0.5-2.3,0.8-3.3,1.2c-0.1-0.5,0.6-0.9,1.1-1.3c-2.4-0.3-6.4,1.2-9,0.4c-0.9,0.7,0.4,0.9-0.6,1.5
	c-0.8-0.2-1.4-0.7-0.4-1.1c-2.3-1.2-7.6,1-11.1-0.2c-1.8,0.8-0.7,1.1-3.5,1.6c0.7-0.5-0.7-1.7,1-1.7l0.2-0.5
	c-2.8-0.1-6.6-0.3-8.1,1.2c-0.1-1.1-0.5-0.2-1.6-0.8c-0.4,0.1,0,0.2,0.2,0.2c-1,0.9-1.6-0.1-2.3,0.1l0.3-0.2l-2,0.7
	c-0.3-0.2-0.8-0.4-0.9-0.7v0.8c-1.1,0-0.5-1-1.9-0.8l0.3,0.6c-0.9-0.4-2.2,0.4-2.4-0.5c0-0.2,0.1-0.1,0.4-0.1
	c-1.3-1.2-3.5,0.3-5.1-0.3l0.4,1.3c-1.6,0.4-1-0.3-0.9-0.7c-1.1,0-1.3-0.4-2.7-0.6c-0.7,0.3-0.4,0.5-0.6,0.8l-1.5-0.4l1-0.7
	c-2.3,1.8-5.6-0.4-7.2,1.2c-0.8-0.4,0.8-0.7,0.3-1c-2.6-0.9-6,1-8.2,0c-3.6-1-7.8-0.4-11.8-1.1l0.1,0.3l-2.9-0.4
	c-0.8,0.7-2.7,0.3-4,1.1c0.1-0.3-0.1-0.7,0.2-0.9c-1.2,0.1-2.6,0.4-3.3-0.1l0.4-0.3c-2.7-0.3-6.4-0.5-7.9,0.1c-0.9,0-0.9-0.6-1.1-1
	c-1.6-0.1-2.6,0.2-3.9,0.7c-0.3-0.2-0.7-0.3-1-0.6l-0.6,0.8c-0.6-0.1-0.1-0.7-0.6-0.9c-2.5,0.9-5.3-0.1-7-0.1l0.2,0.4
	c-0.7,0.3-2.1-0.3-1.2-0.7c-3.4-0.6-5.1,1.2-9.6,0.8c-0.6-1.5-4.1,0.3-4.8-1.4c-1.9,0.4-3.2-0.3-4.5,0.6c0-0.2-0.2-0.2,0.1-0.3
	C100.5,3.3,98,3.7,96,4.1l-0.1-0.5c-0.9,1.2-4.2,0.9-4.9,2c-0.2-0.2,0.4-0.5,0.7-0.7c-1-1.1-1.8,0.5-3.1,0.2c0.1-0.3-0.3-0.6,0-0.8
	C84.2,3.1,78,5,72.3,4.2c-1.6,0,0.6,1.2-1.5,1.1c-0.6-0.6,1-1.1-0.3-1.4c-0.9,0.7-1.3,0.5-2.6,0.5c0.2-0.4,0-0.6,0.9-0.9
	c-0.7-0.5-3.1,0.9-4.5,0c0.1,0.3-0.2,0.5-0.5,0.7c-2.1,1-4.9-0.9-5.1-0.4c0,0-0.7,0.2-0.1,0.3c-0.8,0-1.9-0.2-1.7-0.7
	c-0.4,0.3-0.8,0.8-1.4,0.8l0.3-0.6c-0.4,0.1-0.8,0.5-1.1,0.6l0.6,0.4c-0.9-0.5-2.6,0.8-2.6-0.4H53l-1.7-0.5c-0.7,0.5-1.3,1-2.5,0.9
	c-0.5-1.3-2.9-0.2-4.3-0.3l0.1-0.4c-1.1,0.6-4,0.4-3.5,0.6c-1.1,0-2.6-0.2-2-0.6C38.3,4,36.4,4,35.9,4.8l-1.8-1
	c-1,1.6-3.6-0.5-3.6,1.2c-1-0.2-0.8-0.6-1.5-0.9c-1.4,0.9-2.8,0.8-4.2,0.7V4.6c-1.4-0.1-3.1,0.8-5.1,1l-0.5-1.2
	c-1,0.2-1.3,1.2-2.3,1c-0.2-0.2,0-0.3,0.2-0.3c-1,0.3-2.3,0.1-3.1-0.2c-1.5,1-2.7,0.7-3.9,1.8c-1.3-1,1.7-0.6,0.6-1.6
	C8.5,4.7,6.3,5.5,4,6.2C3.8,6,4,5.8,4.1,5.5c0,0-1.2,0.9-2.2,1.8c-1,1-1.9,2.1-1.4,2.7c-0.5,0.9-1.2,1.4,0.9,2
	c0.6-0.5,2.5-1.3,2.9-0.4l0.1-0.9C7,10.1,4.8,12.5,8,12.3L7.3,12c0.6-0.1,1.1-0.7,1.8-0.5c0.2,0.2-0.2,0.4-0.5,0.6
	c0.9-0.5,1.7-0.9,2.6-1.4c0.1,0.5,0.1,0.8-0.4,1.2c2.5-0.2-0.6-1.6,2.4-1.4c0.6,0.4-0.2,0.6-0.5,0.9c1.4,0.7,2.3-0.1,3.8-0.6
	c0.1,0.8-0.9,0.7,0.3,1.2c-0.3-0.4-0.5-1.1,0.5-1.2c-0.4,0.8,0.7,0.4,1.6,0.5c-0.2-0.3-0.1-0.6,0.2-0.8c0.4-0.1,0.8,0.1,1.4,0.1
	l-1.1-0.7c1.5-0.8,2.4,0.3,3.6,0.6c-0.1,0.1-0.3,0.3-0.5,0.3c1.2,0.3,2.5,0.9,4.1,0.1L26.3,11c2.9-0.9-1-1.3,2.4-2.2
	c1.1,0.1-0.4,2.6,2.1,1.6c-1.3-0.6,1.6-1.7,3.1-2L32.4,10c0.6,0,1.6-0.5,2-0.3l-0.1-0.3c-0.2-1.3,1.9,0.1,3-0.7
	c-1.3,1.8-1.4,1.5-1.6,3.2c1-1,2.2-1.9,4.1-1.8l-1.5,1.4c2.5,0.2,5.5-1.9,7.6-3c-0.5,1,0.3,1.4-0.6,2.2l2.4-0.3L47,11.5
	c1-1.2,2.1-0.4,1.9-1.9c-0.3,0.2-0.2,0.4-0.7,0.3c0.1-0.4,0.5-1.4,1.7-1.3c0.9,0.3-0.5,0.6-0.2,1c0.8-0.6,0.9,0.3,1.7-0.1l-0.8-0.6
	C51.2,8,52,8.8,52.8,8.4c-1,0.4-0.7,0.9-0.3,1.4l-0.1-0.1c0.8-0.1,1.6-0.7,2-0.2l-0.5,1.2l0.9-0.9c0.3,0.1,0.6,0.6,0,0.8
	c2.8,0.7-0.1-2.5,3.6-1.5c0,0.5-0.4,0.8-1.4,0.5c-0.2,0.7,0.1,1.1,1.1,1.4v0.1c1.9,0,4.4,0,5.6-0.8c0.4,0.3,0,0.6-0.4,0.9
	c2.1,0.4,2.8-0.7,5,0.1l-1-0.4c1.4-0.6,4-0.8,5.3,0.1l-0.4,0.3c1.3-0.7,3.5,0.6,4,0c-0.6-0.4,0-0.6-0.8-1l3.4-0.7l0.2,1.2l1.8-0.4
	c-0.4-0.5,2.4,0.4,2.5-0.7c1,0.4-0.4,0.9-0.8,1.4c1-0.3,1.1,0.2,2.1-0.5l1,1.1l2.6-0.7c-0.1,0.1,0,0.2-0.1,0.3
	c1.2-0.9,3.1,0.6,4.6-0.9c-0.1,0.1-0.1,0.1-0.1,0.2c0.9-0.8,2.9-0.2,3.7,0c1.4-0.2,0.6-1,0.6-1.4c3.9,0.4,2.7,0.3,6-0.9
	c2,1.4-2.4,2.1,0.1,3c0.4-0.6,2.1-1.1,4.1-1.3c1.8,0.5,4.8,0.9,6.5,1.9l-0.2-0.9l2.6-0.4l-1.5,1.2c0.4-0.3,1.7-0.8,2.6-1.2
	c2.7-0.7,1.4,1.9,3.5,0.7c0.1,0.1,0.1,0.2,0.2,0.3c0.7-0.6,2.4-0.3,4.4-0.5l-0.7,1.1l-1.3-0.3c0.7,1.1,2.1-0.1,3.4,0
	c1.3-0.3,0.7-1.3,1.4-1.6c0.5,0.1,1.2-0.2,1.6,0.1c1.1,0.4,0.1,1.3-0.3,1.8c1-1.1,1.4-0.9,3.6-1.3c0.1,0.5-0.1,0.8-0.4,0.9
	c0.5-0.1,0.9-0.3,1.2-0.8l0.7,0.7c2.5,1,2.6-2,5.6-1.5c-0.8,0.6,2.6,0,3.5,0.7c-1.1,0.1,0.4,1.6-0.2,2.3c2.4,0.5,1-1.3,3-1.4
	l-0.9,1.3c1.9-0.5,0.5-0.7,2.4-1.1c-0.5,0.4,0.8,0.4-0.3,0.8c2.5,0.2,1.9,0.1,4.1,0.3l0.2-1.3c0.7-0.1,1,0.5,1.2,0.7
	c-0.3,0-0.8-0.1-0.7,0.1c0.8,1.2,1.4-0.6,2.4,0.5c-0.2-0.4-0.5-1,0.4-1.1c-0.3,0.8,1.4,0.8,1.4,1.2c-0.6-0.6,2-0.2,2.1-1
	c1,0.7-0.4,0.6-0.4,1.1c0.9-1,3.7,0,4.6-0.6c0,0.1,0.1,0.1,0.1,0.2c1.2-0.6,3-0.7,5.3-1.5l-0.8,0.7c2.2,0.4,1.4-1.5,3.3-1.5
	c-0.4,1.1,3.1,0,2.2,1.2c1.1-0.6,2.3-0.8,3.1-1.7c1,0.6-2.1,1.4-0.6,1.8l1.6-0.5l0.3,0.6c0.1-0.4,1.5-0.4,1.4-0.8
	c0.2,0.7,0.9,1.2,0.8,1.8c1-0.2,2.4,0.5,3.3-0.1l0.1,0.3c1-1.3,3.1-0.2,3.6-1.5l0.6,0.7c1.5-0.1,1.3-1.5,2-1.8c0.6,0,1.4-0.2,2,0
	c-2,0.8,1,1.1,1.4,1.6c0.8,0,3.1,0,3.7-0.7c-1,0.7-0.4,1.2-2.1,1.3c0.9,1.3,2.6-0.2,4.5-0.1v0.6c2.7-0.4,2.8-1.5,4-2.5
	c0.3,0.8,0.1,1-0.7,1.7c1.8,0.5,4.7-0.1,6.7,0c0.6,0.5,0.2,0.9-0.5,1.1c2.1-0.6,4.7,0.1,6-1.2c-0.5,0.5,0.9,0.3,1.6,0.6
	c0-0.3,0.1-0.6,0.2-0.6c1.3-0.6,4.1-1.1,5.6-0.7l-0.5,0.4c1.7,0.1,3-0.5,4.3-0.9s2.6-0.8,4.5-0.4c0.7,0.3-0.7,1.1,0.7,1
	c0.7-0.5,0.4-1.5,2.2-1.3l-0.1,0.9l1.2-0.9c-0.7-0.7-2.6-0.4-1.3-1.2c1.6,0.8,1.3-0.9,3.3,0c-0.4,0.1-1,0.8-1.3,1.2
	c2,0.4,3.4,0.1,4.8-0.1c1.4-0.3,2.8-0.6,4.9-0.2c2-0.8,4.6-1.2,5.9-1.9c0,0.9,0,1.7-0.8,2.4c1.8,0,2.4-2.1,3.7-0.9
	c0.7-1.3,4.7-1.2,5-3C258,6.8,260,6,260,6z"/>
<path class="st0" d="M58.1,11.1c-1,0-1.9,0-2.3,0.2C56,11.5,58.1,11.9,58.1,11.1z M208.2,13.3c-0.1,0-0.3,0.1-0.4,0.1
	C207.9,13.4,208.1,13.4,208.2,13.3z M216.3,12.9c-0.1-0.1-0.2-0.2-0.4-0.3C215.9,12.9,216,13.1,216.3,12.9z M178.5,13.7
	c0.7-0.4,1-0.7,1-1C179.1,12.8,178.8,13,178.5,13.7z M163,12.6c-0.1,0.1-0.2,0.1-0.3,0.2C163,12.7,163,12.6,163,12.6z M130.2,12
	c0.7-0.4,1.6-0.3,2.4-0.5C131.9,11.7,130.7,11.2,130.2,12z M226.1,11.4l-0.7,0.6l0.8-0.4L226.1,11.4z M218.6,12
	c-0.3-0.1-1.7,0.3-1.3,0.6C217.7,12.3,218.2,12.1,218.6,12z M189.6,11.4l-0.3,0.6l0.7-0.5L189.6,11.4z"/>
</svg>
