<svg id="uuid-86aa53bc-4db6-464d-b2ef-f59d9661dca0" xmlns="http://www.w3.org/2000/svg" viewBox="0 0 126.12 106.82"><path d="M15.69,10.96C15.69,4.92,20.6,0,26.65,0h2.42v6.41c0,6.04-4.92,10.96-10.96,10.96h-2.41v-6.41h0ZM26.43,2.19c-2.29.06-4.45.99-6.06,2.64-1.61,1.65-2.5,3.83-2.5,6.13v4.23h.45c2.29-.07,4.45-1,6.06-2.65,1.61-1.65,2.5-3.83,2.5-6.13V2.18h-.45s0,.01,0,.01Z" fill="#FFFFFF" stroke-width="0"/><path d="M15.69,28.33c0-6.04,4.92-10.96,10.96-10.96h2.42v6.41c0,6.04-4.92,10.96-10.96,10.96h-2.42v-6.41h0Z" fill="#FFFFFF" stroke-width="0"/><path d="M0,17.37h2.41c6.04,0,10.96,4.92,10.96,10.96v6.41h-2.42c-6.04,0-10.96-4.92-10.96-10.96v-6.41h0ZM11.19,28.32c0-2.3-.89-4.48-2.5-6.13-1.61-1.65-3.76-2.59-6.06-2.64h-.45s0,4.22,0,4.22c0,2.3.89,4.48,2.5,6.13,1.61,1.65,3.76,2.59,6.06,2.64h.45s0-4.22,0-4.22h0Z" fill="#FFFFFF" stroke-width="0"/><path d="M0,0h2.42C8.46,0,13.38,4.92,13.38,10.96v6.41h-2.42C4.92,17.37,0,12.45,0,6.41V0h0Z" fill="#FFFFFF" stroke-width="0"/><path d="M45.73,23.77c0,6.04-4.92,10.96-10.96,10.96h-2.42v-6.41c0-6.04,4.92-10.96,10.96-10.96h2.41v6.41h0ZM34.99,32.54c2.29-.06,4.45-.99,6.06-2.64,1.61-1.65,2.5-3.83,2.5-6.13v-4.23h-.45c-2.29.07-4.45,1-6.06,2.65-1.61,1.65-2.5,3.83-2.5,6.13v4.23h.45Z" fill="#FFFFFF" stroke-width="0"/><path d="M45.73,6.41c0,6.04-4.92,10.96-10.96,10.96h-2.42v-6.41c0-6.04,4.92-10.96,10.96-10.96h2.42v6.41h0Z" fill="#FFFFFF" stroke-width="0"/><path d="M61.42,17.37h-2.41c-6.04,0-10.96-4.92-10.96-10.96V0h2.42C56.5,0,61.42,4.92,61.42,10.96v6.41h0ZM50.23,6.41c0,2.3.89,4.48,2.5,6.13,1.61,1.65,3.76,2.59,6.06,2.64h.45s0-4.22,0-4.22c0-2.3-.89-4.48-2.5-6.13-1.61-1.65-3.76-2.59-6.06-2.64h-.45s0,4.22,0,4.22h0Z" fill="#FFFFFF" stroke-width="0"/><path d="M61.42,34.73h-2.42c-6.04,0-10.96-4.92-10.96-10.96v-6.41h2.42c6.04,0,10.96,4.92,10.96,10.96v6.41h0Z" fill="#FFFFFF" stroke-width="0"/><path d="M80.4,10.96C80.4,4.92,85.31,0,91.35,0h2.42v6.41c0,6.04-4.92,10.96-10.96,10.96h-2.41v-6.41h0ZM91.14,2.19c-2.29.06-4.45.99-6.06,2.64-1.61,1.65-2.5,3.83-2.5,6.13v4.23h.45c2.29-.07,4.45-1,6.06-2.65,1.61-1.65,2.5-3.83,2.5-6.13V2.18h-.45s0,.01,0,.01Z" fill="#FFFFFF" stroke-width="0"/><path d="M80.39,28.33c0-6.04,4.92-10.96,10.96-10.96h2.42v6.41c0,6.04-4.92,10.96-10.96,10.96h-2.42v-6.41h0Z" fill="#FFFFFF" stroke-width="0"/><path d="M64.71,17.37h2.41c6.04,0,10.96,4.92,10.96,10.96v6.41h-2.42c-6.04,0-10.96-4.92-10.96-10.96v-6.41h0ZM75.9,28.32c0-2.3-.89-4.48-2.5-6.13-1.61-1.65-3.76-2.59-6.06-2.64h-.45s0,4.22,0,4.22c0,2.3.89,4.48,2.5,6.13,1.61,1.65,3.76,2.59,6.06,2.64h.45s0-4.22,0-4.22h0Z" fill="#FFFFFF" stroke-width="0"/><path d="M64.71,0h2.42C73.17,0,78.08,4.92,78.08,10.96v6.41h-2.42c-6.04,0-10.96-4.92-10.96-10.96V0h0Z" fill="#FFFFFF" stroke-width="0"/><path d="M110.44,23.77c0,6.04-4.92,10.96-10.96,10.96h-2.42v-6.41c0-6.04,4.92-10.96,10.96-10.96h2.41v6.41h0ZM99.69,32.54c2.29-.06,4.45-.99,6.06-2.64,1.61-1.65,2.5-3.83,2.5-6.13v-4.23h-.45c-2.29.07-4.45,1-6.06,2.65-1.61,1.65-2.5,3.83-2.5,6.13v4.23h.45Z" fill="#FFFFFF" stroke-width="0"/><path d="M110.44,6.41c0,6.04-4.92,10.96-10.96,10.96h-2.42v-6.41c0-6.04,4.92-10.96,10.96-10.96h2.42v6.41h0Z" fill="#FFFFFF" stroke-width="0"/><path d="M126.12,17.37h-2.41c-6.04,0-10.96-4.92-10.96-10.96V0h2.42C121.21,0,126.12,4.92,126.12,10.96v6.41h0ZM114.93,6.41c0,2.3.89,4.48,2.5,6.13,1.61,1.65,3.76,2.59,6.06,2.64h.45s0-4.22,0-4.22c0-2.3-.89-4.48-2.5-6.13-1.61-1.65-3.76-2.59-6.06-2.64h-.45s0,4.22,0,4.22h0Z" fill="#FFFFFF" stroke-width="0"/><path d="M126.12,34.73h-2.42c-6.04,0-10.96-4.92-10.96-10.96v-6.41h2.42c6.04,0,10.96,4.92,10.96,10.96v6.41Z" fill="#FFFFFF" stroke-width="0"/><path d="M15.69,47.01c0-6.04,4.92-10.96,10.96-10.96h2.42v6.41c0,6.04-4.92,10.96-10.96,10.96h-2.41v-6.41h0ZM26.43,38.23c-2.29.06-4.45.99-6.06,2.64-1.61,1.65-2.5,3.83-2.5,6.13v4.23h.45c2.29-.07,4.45-1,6.06-2.65,1.61-1.65,2.5-3.83,2.5-6.13v-4.23h-.45s0,.01,0,.01Z" fill="#FFFFFF" stroke-width="0"/><path d="M15.69,64.37c0-6.04,4.92-10.96,10.96-10.96h2.42v6.41c0,6.04-4.92,10.96-10.96,10.96h-2.42v-6.41h0Z" fill="#FFFFFF" stroke-width="0"/><path d="M0,53.41h2.41c6.04,0,10.96,4.92,10.96,10.96v6.41h-2.42c-6.04,0-10.96-4.92-10.96-10.96v-6.41h0ZM11.19,64.37c0-2.3-.89-4.48-2.5-6.13-1.61-1.65-3.76-2.59-6.06-2.64h-.45s0,4.22,0,4.22c0,2.3.89,4.48,2.5,6.13,1.61,1.65,3.76,2.59,6.06,2.64h.45s0-4.22,0-4.22h0Z" fill="#FFFFFF" stroke-width="0"/><path d="M0,36.05h2.42c6.04,0,10.96,4.92,10.96,10.96v6.41h-2.42C4.92,53.41,0,48.5,0,42.45v-6.41h0Z" fill="#FFFFFF" stroke-width="0"/><path d="M45.73,59.82c0,6.04-4.92,10.96-10.96,10.96h-2.42v-6.41c0-6.04,4.92-10.96,10.96-10.96h2.41v6.41h0ZM34.99,68.59c2.29-.06,4.45-.99,6.06-2.64,1.61-1.65,2.5-3.83,2.5-6.13v-4.23h-.45c-2.29.07-4.45,1-6.06,2.65-1.61,1.65-2.5,3.83-2.5,6.13v4.23h.45Z" fill="#FFFFFF" stroke-width="0"/><path d="M45.73,42.45c0,6.04-4.92,10.96-10.96,10.96h-2.42v-6.41c0-6.04,4.92-10.96,10.96-10.96h2.42v6.41h0Z" fill="#FFFFFF" stroke-width="0"/><path d="M61.42,53.41h-2.41c-6.04,0-10.96-4.92-10.96-10.96v-6.41h2.42c6.04,0,10.96,4.92,10.96,10.96v6.41h0ZM50.23,42.45c0,2.3.89,4.48,2.5,6.13,1.61,1.65,3.76,2.59,6.06,2.64h.45s0-4.22,0-4.22c0-2.3-.89-4.48-2.5-6.13-1.61-1.65-3.76-2.59-6.06-2.64h-.45s0,4.22,0,4.22Z" fill="#FFFFFF" stroke-width="0"/><path d="M61.42,70.78h-2.42c-6.04,0-10.96-4.92-10.96-10.96v-6.41h2.42c6.04,0,10.96,4.92,10.96,10.96v6.41h0Z" fill="#FFFFFF" stroke-width="0"/><path d="M80.4,47.01c0-6.04,4.92-10.96,10.96-10.96h2.42v6.41c0,6.04-4.92,10.96-10.96,10.96h-2.41v-6.41h0ZM91.14,38.23c-2.29.06-4.45.99-6.06,2.64-1.61,1.65-2.5,3.83-2.5,6.13v4.23h.45c2.29-.07,4.45-1,6.06-2.65,1.61-1.65,2.5-3.83,2.5-6.13v-4.23h-.45Z" fill="#FFFFFF" stroke-width="0"/><path d="M80.39,64.37c0-6.04,4.92-10.96,10.96-10.96h2.42v6.41c0,6.04-4.92,10.96-10.96,10.96h-2.42v-6.41h0Z" fill="#FFFFFF" stroke-width="0"/><path d="M64.71,53.41h2.41c6.04,0,10.96,4.92,10.96,10.96v6.41h-2.42c-6.04,0-10.96-4.92-10.96-10.96v-6.41h0ZM75.9,64.37c0-2.3-.89-4.48-2.5-6.13-1.61-1.65-3.76-2.59-6.06-2.64h-.45s0,4.22,0,4.22c0,2.3.89,4.48,2.5,6.13,1.61,1.65,3.76,2.59,6.06,2.64h.45s0-4.22,0-4.22Z" fill="#FFFFFF" stroke-width="0"/><path d="M64.71,36.05h2.42c6.04,0,10.96,4.92,10.96,10.96v6.41h-2.42c-6.04,0-10.96-4.92-10.96-10.96v-6.41h0Z" fill="#FFFFFF" stroke-width="0"/><path d="M110.44,59.82c0,6.04-4.92,10.96-10.96,10.96h-2.42v-6.41c0-6.04,4.92-10.96,10.96-10.96h2.41v6.41h0ZM99.69,68.59c2.29-.06,4.45-.99,6.06-2.64,1.61-1.65,2.5-3.83,2.5-6.13v-4.23h-.45c-2.29.07-4.45,1-6.06,2.65-1.61,1.65-2.5,3.83-2.5,6.13v4.23h.45Z" fill="#FFFFFF" stroke-width="0"/><path d="M110.44,42.45c0,6.04-4.92,10.96-10.96,10.96h-2.42v-6.41c0-6.04,4.92-10.96,10.96-10.96h2.42v6.41Z" fill="#FFFFFF" stroke-width="0"/><path d="M126.12,53.41h-2.41c-6.04,0-10.96-4.92-10.96-10.96v-6.41h2.42c6.04,0,10.96,4.92,10.96,10.96v6.41h0ZM114.93,42.45c0,2.3.89,4.48,2.5,6.13,1.61,1.65,3.76,2.59,6.06,2.64h.45s0-4.22,0-4.22c0-2.3-.89-4.48-2.5-6.13-1.61-1.65-3.76-2.59-6.06-2.64h-.45s0,4.22,0,4.22h0Z" fill="#FFFFFF" stroke-width="0"/><path d="M126.12,70.78h-2.42c-6.04,0-10.96-4.92-10.96-10.96v-6.41h2.42c6.04,0,10.96,4.92,10.96,10.96v6.41Z" fill="#FFFFFF" stroke-width="0"/><path d="M15.69,83.05c0-6.04,4.92-10.96,10.96-10.96h2.42v6.41c0,6.04-4.92,10.96-10.96,10.96h-2.41v-6.41h0ZM26.43,74.28c-2.29.06-4.45.99-6.06,2.64-1.61,1.65-2.5,3.83-2.5,6.13v4.23h.45c2.29-.07,4.45-1,6.06-2.65,1.61-1.65,2.5-3.83,2.5-6.13v-4.23h-.45s0,.01,0,.01Z" fill="#FFFFFF" stroke-width="0"/><path d="M15.69,100.42c0-6.04,4.92-10.96,10.96-10.96h2.42v6.41c0,6.04-4.92,10.96-10.96,10.96h-2.42v-6.41h0Z" fill="#FFFFFF" stroke-width="0"/><path d="M0,89.46h2.41c6.04,0,10.96,4.92,10.96,10.96v6.41h-2.42c-6.04,0-10.96-4.92-10.96-10.96v-6.41h0ZM11.19,100.42c0-2.3-.89-4.48-2.5-6.13-1.61-1.65-3.76-2.59-6.06-2.64h-.45s0,4.22,0,4.22c0,2.3.89,4.48,2.5,6.13,1.61,1.65,3.76,2.59,6.06,2.64h.45s0-4.22,0-4.22h0Z" fill="#FFFFFF" stroke-width="0"/><path d="M0,72.09h2.42c6.04,0,10.96,4.92,10.96,10.96v6.41h-2.42C4.92,89.46,0,84.54,0,78.5v-6.41h0Z" fill="#FFFFFF" stroke-width="0"/><path d="M45.73,95.86c0,6.04-4.92,10.96-10.96,10.96h-2.42v-6.41c0-6.04,4.92-10.96,10.96-10.96h2.41v6.41h0ZM34.99,104.63c2.29-.06,4.45-.99,6.06-2.64,1.61-1.65,2.5-3.83,2.5-6.13v-4.23h-.45c-2.29.07-4.45,1-6.06,2.65-1.61,1.65-2.5,3.83-2.5,6.13v4.23h.45Z" fill="#FFFFFF" stroke-width="0"/><path d="M45.73,78.5c0,6.04-4.92,10.96-10.96,10.96h-2.42v-6.41c0-6.04,4.92-10.96,10.96-10.96h2.42v6.41h0Z" fill="#FFFFFF" stroke-width="0"/><path d="M61.42,89.46h-2.41c-6.04,0-10.96-4.92-10.96-10.96v-6.41h2.42c6.04,0,10.96,4.92,10.96,10.96v6.41h0ZM50.23,78.5c0,2.3.89,4.48,2.5,6.13,1.61,1.65,3.76,2.59,6.06,2.64h.45s0-4.22,0-4.22c0-2.3-.89-4.48-2.5-6.13-1.61-1.65-3.76-2.59-6.06-2.64h-.45s0,4.22,0,4.22Z" fill="#FFFFFF" stroke-width="0"/><path d="M61.42,106.82h-2.42c-6.04,0-10.96-4.92-10.96-10.96v-6.41h2.42c6.04,0,10.96,4.92,10.96,10.96v6.41h0Z" fill="#FFFFFF" stroke-width="0"/><path d="M80.4,83.05c0-6.04,4.92-10.96,10.96-10.96h2.42v6.41c0,6.04-4.92,10.96-10.96,10.96h-2.41v-6.41h0ZM91.14,74.28c-2.29.06-4.45.99-6.06,2.64-1.61,1.65-2.5,3.83-2.5,6.13v4.23h.45c2.29-.07,4.45-1,6.06-2.65,1.61-1.65,2.5-3.83,2.5-6.13v-4.23h-.45Z" fill="#FFFFFF" stroke-width="0"/><path d="M80.39,100.42c0-6.04,4.92-10.96,10.96-10.96h2.42v6.41c0,6.04-4.92,10.96-10.96,10.96h-2.42v-6.41h0Z" fill="#FFFFFF" stroke-width="0"/><path d="M64.71,89.46h2.41c6.04,0,10.96,4.92,10.96,10.96v6.41h-2.42c-6.04,0-10.96-4.92-10.96-10.96v-6.41h0ZM75.9,100.42c0-2.3-.89-4.48-2.5-6.13-1.61-1.65-3.76-2.59-6.06-2.64h-.45s0,4.22,0,4.22c0,2.3.89,4.48,2.5,6.13,1.61,1.65,3.76,2.59,6.06,2.64h.45s0-4.22,0-4.22Z" fill="#FFFFFF" stroke-width="0"/><path d="M64.71,72.09h2.42c6.04,0,10.96,4.92,10.96,10.96v6.41h-2.42c-6.04,0-10.96-4.92-10.96-10.96v-6.41h0Z" fill="#FFFFFF" stroke-width="0"/><path d="M110.44,95.86c0,6.04-4.92,10.96-10.96,10.96h-2.42v-6.41c0-6.04,4.92-10.96,10.96-10.96h2.41v6.41h0ZM99.69,104.63c2.29-.06,4.45-.99,6.06-2.64,1.61-1.65,2.5-3.83,2.5-6.13v-4.23h-.45c-2.29.07-4.45,1-6.06,2.65-1.61,1.65-2.5,3.83-2.5,6.13v4.23h.45Z" fill="#FFFFFF" stroke-width="0"/><path d="M110.44,78.5c0,6.04-4.92,10.96-10.96,10.96h-2.42v-6.41c0-6.04,4.92-10.96,10.96-10.96h2.42v6.41Z" fill="#FFFFFF" stroke-width="0"/><path d="M126.12,89.46h-2.41c-6.04,0-10.96-4.92-10.96-10.96v-6.41h2.42c6.04,0,10.96,4.92,10.96,10.96v6.41h0ZM114.93,78.5c0,2.3.89,4.48,2.5,6.13,1.61,1.65,3.76,2.59,6.06,2.64h.45s0-4.22,0-4.22c0-2.3-.89-4.48-2.5-6.13-1.61-1.65-3.76-2.59-6.06-2.64h-.45s0,4.22,0,4.22h0Z" fill="#FFFFFF" stroke-width="0"/><path d="M126.12,106.82h-2.42c-6.04,0-10.96-4.92-10.96-10.96v-6.41h2.42c6.04,0,10.96,4.92,10.96,10.96v6.41Z" fill="#FFFFFF" stroke-width="0"/></svg>